# xmcd
#
# Track frame offsets: 
#        150
#        30739
#        46043
#        90100
#        130932
#        176324
#        210587
#        258674
#        307584
#        341264
#
# Disc length: 4775 seconds
#
# Revision: 1
# Processed by: cddbd v1.5.2PL0 Copyright (c) Steve Scherf et al.
# Submitted via: ExactAudioCopy v0.95b4
#
DISCID=7012a50a
DTITLE=Cannonball Adderley - European Tours 1960-61
DYEAR=2016
DGENRE=Jazz
TTITLE0=Lisa
TTITLE1=Cannonbal Introduces the Band
TTITLE2=This Here
TTITLE3=New Dheli
TTITLE4=Jeannine
TTITLE5=Blue Daniel
TTITLE6=The Chant
TTITLE7=Bohemia After Dark
TTITLE8=Work Song
TTITLE9=I'll Remember April (Bonus Track)
EXTD=YEAR: 2016
EXTT0=
EXTT1=
EXTT2=
EXTT3=
EXTT4=
EXTT5=
EXTT6=
EXTT7=
EXTT8=
EXTT9=
PLAYORDER=
